<svg id="Capa_2_copia_2" data-name="Capa 2 copia 2" xmlns="http://www.w3.org/2000/svg" xmlns:xlink="http://www.w3.org/1999/xlink" viewBox="0 0 846.15 109.32"><defs><style>.cls-1{fill:#054563;}.cls-2{fill:#ff924d;}.cls-3{fill:#fff;}.cls-4{fill:url(#Degradado_sin_nombre_53);}</style><linearGradient id="Degradado_sin_nombre_53" x1="277.21" y1="68.49" x2="302.11" y2="40.83" gradientTransform="translate(37.94 208.05) rotate(-42.04)" gradientUnits="userSpaceOnUse"><stop offset="0" stop-color="#fff"/><stop offset="0.1" stop-color="#ffe6d6"/><stop offset="0.24" stop-color="#ffc29b"/><stop offset="0.37" stop-color="#ffa871"/><stop offset="0.47" stop-color="#ff9857"/><stop offset="0.53" stop-color="#ff924d"/><stop offset="0.53" stop-color="#fe924d"/><stop offset="0.77" stop-color="#796959"/><stop offset="0.93" stop-color="#264f60"/><stop offset="1" stop-color="#054563"/></linearGradient></defs><title>logo-fondo-azul-2</title><rect class="cls-1" width="846.15" height="109.32"/><path class="cls-2" d="M190,27.06h-6.48L171.61,82.72h7.12l2-11.09h12l2,11.09H202Zm-7.89,38.76,4.55-26.36,4.76,26.36Z"/><rect class="cls-2" x="226.07" y="27.06" width="7.59" height="55.66"/><path class="cls-3" d="M34.74,81.54c14.4,5.42,20.5-2.48,21.58-11,.8-6.4-2.78-10.92-5.94-15.2-2.48-3.35-4.75-6-5.23-6.64-.87-1.25-5.41-5.75-4.37-10.95a6.44,6.44,0,0,1,2-3.68c5.34-4.47,11.44.53,11.44.53s0-2.36,0-6.47c-7.73-4.46-17.67-1.68-20.05,6.63A18,18,0,0,0,37.7,51.51L45.37,61s6.41,6.75,2.59,12.8c-4.36,6.91-13.22.82-13.22.82Z"/><polygon class="cls-3" points="97.17 26.92 90.19 51.98 90.17 52.16 90.15 51.98 83.17 26.92 75.63 26.92 86.17 59.3 86.17 82.75 86.55 82.75 93.79 82.75 94.17 82.75 94.17 59.3 104.71 26.92 97.17 26.92"/><path class="cls-3" d="M140.94,33.64c4-2.25,8.62.15,8.62.15V26.91a18.76,18.76,0,0,0-10.67-.23C133.55,28.34,126,33.05,126.23,54h0c0,20.58,3.19,23.89,8.65,27.31,6.51,4.08,14.68.62,14.68.62V75S143.49,78,139.3,75c-4.78-3.45-5.18-9.83-5.11-21.67S136.66,36.07,140.94,33.64Z"/><rect class="cls-4" x="270.81" y="36.06" width="37.71" height="37.19" transform="translate(111.15 -179.92) rotate(42.04)"/><path class="cls-3" d="M401.82,81.9a.85.85,0,0,1-.13.47.83.83,0,0,1-.45.35,4,4,0,0,1-.82.21,7.3,7.3,0,0,1-1.27.09,7,7,0,0,1-1.2-.09,3.56,3.56,0,0,1-.82-.21.86.86,0,0,1-.56-.82V31.5h-.09L374.55,82.2a1,1,0,0,1-.26.32,1.48,1.48,0,0,1-.47.26,4.87,4.87,0,0,1-.71.18,6.9,6.9,0,0,1-1,.06,7.68,7.68,0,0,1-1-.06,4,4,0,0,1-.71-.18,1.37,1.37,0,0,1-.45-.26.6.6,0,0,1-.22-.32L348.87,31.5h0V81.9a1,1,0,0,1-.13.47.9.9,0,0,1-.46.35,3.92,3.92,0,0,1-.81.21,7.78,7.78,0,0,1-1.32.09,7,7,0,0,1-1.23-.09,3.54,3.54,0,0,1-.79-.21.76.76,0,0,1-.41-.35.93.93,0,0,1-.11-.47V29.6a2.45,2.45,0,0,1,.82-2.14,2.73,2.73,0,0,1,1.59-.58h2.85a6.75,6.75,0,0,1,1.89.23,4.75,4.75,0,0,1,1.45.69,4.58,4.58,0,0,1,1.05,1.1,9.25,9.25,0,0,1,.78,1.47l18.39,44.4h.22l19.17-44.22a9.43,9.43,0,0,1,.93-1.75,5.34,5.34,0,0,1,1-1.15,3.26,3.26,0,0,1,1.17-.6,4.87,4.87,0,0,1,1.36-.17h3.14a3.07,3.07,0,0,1,.82.12,1.91,1.91,0,0,1,.77.46,2.68,2.68,0,0,1,.59.84,3.29,3.29,0,0,1,.23,1.3Z"/><path class="cls-3" d="M472.54,80.43a5.83,5.83,0,0,1-.08,1,2.24,2.24,0,0,1-.28.74,1.38,1.38,0,0,1-.45.45,1.12,1.12,0,0,1-.56.15H445.05a2.76,2.76,0,0,1-1.59-.58,2.48,2.48,0,0,1-.82-2.14V29.6a2.48,2.48,0,0,1,.82-2.14,2.76,2.76,0,0,1,1.59-.58h25.73a1.09,1.09,0,0,1,.56.15,1.24,1.24,0,0,1,.43.45,2.59,2.59,0,0,1,.26.76,6.41,6.41,0,0,1,.08,1.05,5.87,5.87,0,0,1-.08,1,2.45,2.45,0,0,1-.26.71,1.26,1.26,0,0,1-.43.43,1.09,1.09,0,0,1-.56.15H447.9V51.23h19.73a1.08,1.08,0,0,1,.6.16,1.21,1.21,0,0,1,.44.43,2.29,2.29,0,0,1,.26.73,6.54,6.54,0,0,1,.08,1.06,5.42,5.42,0,0,1-.08,1,2.08,2.08,0,0,1-.26.67,1.17,1.17,0,0,1-.44.39,1.4,1.4,0,0,1-.6.13H447.9V78.05h23.27a1.12,1.12,0,0,1,.56.15,1.56,1.56,0,0,1,.45.44,1.89,1.89,0,0,1,.28.73A6.54,6.54,0,0,1,472.54,80.43Z"/><path class="cls-3" d="M551.28,54a39.66,39.66,0,0,1-1.77,12.41,23.36,23.36,0,0,1-5.21,9,21.83,21.83,0,0,1-8.51,5.48,35.07,35.07,0,0,1-12.09,1.86h-11a2.76,2.76,0,0,1-1.6-.58,2.47,2.47,0,0,1-.81-2.14V29.6a2.47,2.47,0,0,1,.81-2.14,2.76,2.76,0,0,1,1.6-.58h11.72a32.51,32.51,0,0,1,12,1.94,22,22,0,0,1,8.18,5.5,23.42,23.42,0,0,1,5,8.56A34.66,34.66,0,0,1,551.28,54Zm-5.64.26a31.83,31.83,0,0,0-1.23-9A19.41,19.41,0,0,0,540.62,38a17.46,17.46,0,0,0-6.49-4.73,25.11,25.11,0,0,0-10-1.71h-8.58V78.05h8.62a28.8,28.8,0,0,0,9.63-1.4,15.62,15.62,0,0,0,6.57-4.34,18.9,18.9,0,0,0,3.94-7.41A37.85,37.85,0,0,0,545.64,54.26Z"/><path class="cls-3" d="M593.65,81.9a.86.86,0,0,1-.56.82,3.65,3.65,0,0,1-.8.21A7.3,7.3,0,0,1,591,83a7.45,7.45,0,0,1-1.25-.09,3.71,3.71,0,0,1-.82-.21.9.9,0,0,1-.43-.35,1,1,0,0,1-.13-.47V27.74a.85.85,0,0,1,.15-.48,1,1,0,0,1,.48-.34,4,4,0,0,1,.82-.22,6.76,6.76,0,0,1,1.18-.08,7.44,7.44,0,0,1,1.27.08,3.59,3.59,0,0,1,.8.22.84.84,0,0,1,.43.34.91.91,0,0,1,.13.48Z"/><path class="cls-3" d="M671,75.16a7.53,7.53,0,0,1,0,.86,4.37,4.37,0,0,1-.13.7,2.75,2.75,0,0,1-.23.56A4.75,4.75,0,0,1,670,78a14.38,14.38,0,0,1-1.79,1.33,22.36,22.36,0,0,1-3.47,1.84,30.56,30.56,0,0,1-4.81,1.56,25.87,25.87,0,0,1-6,.64,24,24,0,0,1-9.53-1.83,19.59,19.59,0,0,1-7.26-5.38,24.89,24.89,0,0,1-4.61-8.72,39.71,39.71,0,0,1-1.61-11.84,40.26,40.26,0,0,1,1.72-12.24,27.12,27.12,0,0,1,4.85-9.2A21,21,0,0,1,645,28.32a22.91,22.91,0,0,1,9.68-2,24.08,24.08,0,0,1,4.84.48A29.18,29.18,0,0,1,663.85,28a21,21,0,0,1,3.56,1.68,12.66,12.66,0,0,1,2.15,1.53,5,5,0,0,1,.74.85,2,2,0,0,1,.23.58,4.71,4.71,0,0,1,.13.74,8.36,8.36,0,0,1,.05.92,7.94,7.94,0,0,1-.07,1.06,2.77,2.77,0,0,1-.21.78,1.42,1.42,0,0,1-.37.5.83.83,0,0,1-.52.17,3.23,3.23,0,0,1-1.7-.89A25.79,25.79,0,0,0,665,34a22.73,22.73,0,0,0-4.37-2,19.09,19.09,0,0,0-6.16-.88,16.4,16.4,0,0,0-7.2,1.57,15.51,15.51,0,0,0-5.62,4.65,22.57,22.57,0,0,0-3.66,7.56,36.62,36.62,0,0,0-1.32,10.32,37,37,0,0,0,1.21,9.89,20.94,20.94,0,0,0,3.49,7.27A14.93,14.93,0,0,0,647,76.89a18.12,18.12,0,0,0,7.63,1.55,19,19,0,0,0,6.1-.88,24.66,24.66,0,0,0,4.46-2,33.51,33.51,0,0,0,3-2,3.61,3.61,0,0,1,1.83-.89.83.83,0,0,1,.43.11.76.76,0,0,1,.28.39,3.5,3.5,0,0,1,.17.75A9.64,9.64,0,0,1,671,75.16Z"/><path class="cls-3" d="M745.82,81a2.57,2.57,0,0,1,.24,1.06.8.8,0,0,1-.3.63,1.84,1.84,0,0,1-.86.28c-.39,0-.89.06-1.49.06A13.66,13.66,0,0,1,742,83a3.23,3.23,0,0,1-.84-.2,1,1,0,0,1-.46-.35,3,3,0,0,1-.28-.51L735.05,67H710.58l-5.13,14.81a1.5,1.5,0,0,1-.26.52,1.38,1.38,0,0,1-.47.37,2.77,2.77,0,0,1-.84.23,8.48,8.48,0,0,1-1.36.09,10.54,10.54,0,0,1-1.51-.09,1.84,1.84,0,0,1-.88-.3.74.74,0,0,1-.3-.6,2.52,2.52,0,0,1,.23-1l19.52-53.17a1.56,1.56,0,0,1,.39-.58,1.66,1.66,0,0,1,.67-.36,4.66,4.66,0,0,1,1-.2,12.84,12.84,0,0,1,1.31-.06,13.46,13.46,0,0,1,1.36.06,4.66,4.66,0,0,1,1,.2,1.41,1.41,0,0,1,1,.94ZM722.69,32.53h-.05L712.13,62.59h21.33Z"/><path class="cls-3" d="M808.44,80.34a5.23,5.23,0,0,1-.08,1,2.86,2.86,0,0,1-.26.75,1.13,1.13,0,0,1-.43.48,1.16,1.16,0,0,1-.6.15H782.89a2.73,2.73,0,0,1-1.59-.58,2.45,2.45,0,0,1-.82-2.14V27.74a.91.91,0,0,1,.13-.48.89.89,0,0,1,.43-.34,3.65,3.65,0,0,1,.82-.22,10,10,0,0,1,2.52,0,3.59,3.59,0,0,1,.8.22.89.89,0,0,1,.43.34,1,1,0,0,1,.13.48V78h21.33a1.16,1.16,0,0,1,.6.15,1.18,1.18,0,0,1,.43.43,2.38,2.38,0,0,1,.26.73A5.65,5.65,0,0,1,808.44,80.34Z"/></svg>