<svg id="Capa_2" data-name="Capa 2" xmlns="http://www.w3.org/2000/svg" xmlns:xlink="http://www.w3.org/1999/xlink" viewBox="0 0 606.23 383.52"><defs><style>.cls-1{fill:#ff924d;}.cls-2,.cls-4{fill:#054563;}.cls-3{fill:url(#Degradado_sin_nombre_53);}.cls-4{font-size:63.41px;font-family:Calibri-Light, Calibri;font-weight:300;letter-spacing:0.28em;}</style><linearGradient id="Degradado_sin_nombre_53" x1="649.44" y1="123.22" x2="701.76" y2="65.11" gradientTransform="translate(110.81 476.68) rotate(-42.04)" gradientUnits="userSpaceOnUse"><stop offset="0" stop-color="#fff"/><stop offset="0.1" stop-color="#ffe6d6"/><stop offset="0.24" stop-color="#ffc29b"/><stop offset="0.37" stop-color="#ffa871"/><stop offset="0.47" stop-color="#ff9857"/><stop offset="0.53" stop-color="#ff924d"/><stop offset="0.53" stop-color="#fe924d"/><stop offset="0.77" stop-color="#796959"/><stop offset="0.93" stop-color="#264f60"/><stop offset="1" stop-color="#054563"/></linearGradient></defs><title>logo-sycai-sin-fondo</title><path class="cls-1" d="M565.66,181.85H547.4L513.83,338.51h20l5.75-31.21h33.86l5.74,31.21h20ZM543.42,291l12.81-74.21L569.63,291Z" transform="translate(-124.94 -38.63)"/><rect class="cls-1" x="542.16" y="143.22" width="21.35" height="156.66"/><path class="cls-2" d="M128.58,335.2c40.52,15.24,57.71-7,60.73-30.92,2.27-18-7.82-30.75-16.71-42.77-7-9.43-13.35-16.75-14.71-18.69-2.46-3.51-15.22-16.2-12.31-30.83.67-3.34,2.32-7.65,5.57-10.37,15-12.56,32.2,1.51,32.2,1.51s0-6.66.12-18.22c-21.76-12.56-49.74-4.72-56.44,18.66a50.69,50.69,0,0,0,9.88,47.08l21.59,26.79s18.06,19,7.31,36c-12.29,19.46-37.23,2.32-37.23,2.32Z" transform="translate(-124.94 -38.63)"/><polygon class="cls-2" points="179.37 142.82 159.72 213.35 159.66 213.85 159.6 213.35 139.94 142.82 118.74 142.82 148.4 233.96 148.4 299.95 149.47 299.95 169.84 299.95 170.92 299.95 170.92 233.96 200.58 142.82 179.37 142.82"/><path class="cls-2" d="M427.51,200.36c11.16-6.33,24.24.44,24.24.44V181.42s-15-5.33-30-.66-36.18,18-35.63,76.92h0c0,57.92,9,67.23,24.35,76.86,18.33,11.48,41.3,1.73,41.3,1.73V316.9s-17.06,8.31-28.87-.21c-13.46-9.7-14.59-27.65-14.36-61C408.29,222.34,415.45,207.21,427.51,200.36Z" transform="translate(-124.94 -38.63)"/><rect class="cls-3" x="636" y="55.1" width="79.21" height="78.13" transform="translate(111.99 -466.84) rotate(42.04)"/><text class="cls-4" transform="translate(222.86 366.49)">MEDICAL</text></svg>